<svg xmlns="http://www.w3.org/2000/svg" viewBox="0 0 512 512"><circle cx="256" cy="256" r="256" fill="#f6f384"/><g fill="#53552b" class="logo-o"><path d="M209.829 428.419c-39.485-9.986-67.624-29.048-84.41-57.18-16.793-28.154-20.193-61.977-10.207-101.462 10.001-39.5 29.071-67.63 57.21-84.378 28.131-16.763 61.947-20.155 101.432-10.177 39.5 9.986 67.638 29.048 84.409 57.18 16.762 28.115 20.147 61.931 10.146 101.43-9.986 39.486-29.033 67.61-57.149 84.38-28.116 16.785-61.932 20.185-101.431 10.207zm2.414-9.596c12.728 3.216 25.732-2.98 38.996-18.581 13.278-15.61 25.273-44.589 35.97-86.946 10.711-42.357 13.943-73.56 9.687-93.608-4.24-20.063-12.728-31.707-25.457-34.93-12.736-3.217-25.747 2.986-39.026 18.61-13.263 15.61-25.259 44.589-35.97 86.946-10.696 42.358-13.928 73.56-9.688 93.608 4.256 20.048 12.752 31.676 25.488 34.9zm0 0"/><path d="M287.305 164.878s5.585-51.082 65.805-75.317c.045-.023.076-.03.076-.03-.03.007-.053.022-.076.03-1.987.833-41.548 18.107-57.898 77.02C393.397 184.377 394.374 50 394.374 50c-144.071 24.296-107.07 114.878-107.07 114.878" class="logo-hoja"/></g></svg>