<svg xmlns="http://www.w3.org/2000/svg" viewBox="0 0 512 512" class="animation"><g fill="#53552b" class="logo-o"><path d="M199.771 504.558c-52.646-13.314-90.164-38.73-112.545-76.239-22.39-37.539-26.924-82.636-13.61-135.282 13.335-52.667 38.762-90.175 76.28-112.505 37.508-22.35 82.596-26.873 135.242-13.57 52.667 13.315 90.185 38.732 112.545 76.24 22.35 37.488 26.863 82.575 13.529 135.242-13.315 52.646-38.71 90.144-76.199 112.504-37.488 22.381-82.575 26.914-135.242 13.61zm3.22-12.795c16.97 4.29 34.31-3.972 51.994-24.774 17.705-20.812 33.698-59.451 47.96-115.928 14.282-56.476 18.591-98.08 12.917-124.81-5.654-26.751-16.972-42.276-33.943-46.575-16.982-4.289-34.33 3.983-52.035 24.816-17.685 20.812-33.678 59.45-47.96 115.927-14.262 56.476-18.57 98.08-12.917 124.81 5.674 26.731 17.002 42.236 33.983 46.534zm0 0"/><path d="M303.073 153.17s7.446-68.109 87.74-100.422a.554.554 0 0 1 .102-.04c-.04.01-.071.03-.102.04-2.649 1.11-55.397 24.143-77.197 102.695C444.53 179.168 445.833 0 445.833 0c-192.096 32.394-142.76 153.17-142.76 153.17" class="logo-hoja"/></g></svg>