<svg xmlns="http://www.w3.org/2000/svg" viewBox="0 0 512 512"><path fill="#f6f384" d="M0 0h512v512H0z"/><g fill="#53552b"><path d="M111.262 198.597c-6.544 0-11.626-1.797-15.253-5.397-3.627-3.61-5.44-8.582-5.44-14.912 0-6.326 1.813-11.29 5.44-14.89 3.627-3.612 8.71-5.42 15.253-5.42 4.694 0 8.224.822 10.603 2.454 2.373 1.637 3.563 3.626 3.563 5.973 0 1.739-.528 3.13-1.579 4.181-1.04 1.056-2.427 1.58-4.16 1.58a13.19 13.19 0 0 1-2.155-.172l-.917-.213v-11.499l-1.067-.384c-.768-.256-1.696-.384-2.773-.384-2.901 0-5.163 1.382-6.784 4.14-1.61 2.762-2.41 7.636-2.41 14.634 0 6.8.8 11.562 2.41 14.293 1.621 2.73 3.883 4.096 6.784 4.096 1.99 0 3.84-.47 5.547-1.408 1.717-.95 3.077-2.203 4.074-3.755.992-1.562 1.494-3.162 1.494-4.8h1.92c0 2.048-.614 3.99-1.835 5.824-1.227 1.835-2.939 3.307-5.141 4.416-2.192 1.094-4.715 1.643-7.574 1.643zM151.488 198.597c-6.347 0-11.318-1.797-14.912-5.397-3.6-3.61-5.398-8.582-5.398-14.912 0-6.326 1.798-11.29 5.398-14.89 3.594-3.612 8.565-5.42 14.912-5.42 6.325 0 11.29 1.808 14.89 5.42 3.595 3.6 5.398 8.564 5.398 14.89 0 6.33-1.803 11.301-5.398 14.912-3.6 3.6-8.565 5.397-14.89 5.397zm0-1.536c2.032 0 3.754-1.43 5.162-4.288 1.408-2.859 2.112-7.685 2.112-14.485 0-6.795-.704-11.627-2.112-14.486-1.408-2.858-3.13-4.288-5.162-4.288-2.048 0-3.776 1.43-5.184 4.288-1.408 2.86-2.112 7.691-2.112 14.486 0 6.8.704 11.626 2.112 14.485 1.408 2.859 3.136 4.288 5.184 4.288zM177.917 196.293l4.587-1.152v-33.707l-4.587-1.152v-1.152h6.891c3.013 0 5.387.971 7.125 2.902.667.768 1.227 1.717 1.686 2.837a14.282 14.282 0 0 1 2.538-3.435c2.288-2.304 5.147-3.456 8.576-3.456 2.859 0 5.424.608 7.702 1.814 2.272 1.194 4.042 2.768 5.312 4.714 1.28 1.936 1.92 3.98 1.92 6.123v24.512l4.608 1.152v1.152h-9.963c-4.597 0-6.89-2.293-6.89-6.89v-19.926c0-3.21-.577-5.675-1.729-7.381-1.152-1.718-2.496-2.582-4.032-2.582-1.936 0-3.669 1.024-5.205 3.072-.672.87-1.232 1.888-1.685 3.051v28.352l4.586 1.152v1.152h-21.44zM250.324 196.293l4.587-1.152v-33.707l-4.587-1.152v-1.152h6.891c3.013 0 5.387.971 7.125 2.902.667.768 1.227 1.717 1.686 2.837.768-1.419 1.584-2.565 2.453-3.435 2.304-2.304 4.933-3.456 7.893-3.456 2.955 0 5.558.656 7.808 1.963 2.246 1.296 3.99 3.067 5.227 5.312.752-1.477 1.568-2.672 2.453-3.584 2.347-2.459 4.976-3.69 7.894-3.69 2.698 0 5.13.565 7.296 1.685 2.176 1.125 3.861 2.661 5.056 4.608a11.798 11.798 0 0 1 1.813 6.357v24.512l4.608 1.152v1.152h-9.963c-4.608 0-6.912-2.293-6.912-6.89v-19.926c0-3.328-.512-5.813-1.536-7.467-1.013-1.664-2.154-2.496-3.434-2.496-1.483 0-2.987 1.024-4.523 3.072a23.136 23.136 0 0 0-1.621 3.051v28.352l4.608 1.152v1.152h-21.462v-1.152l4.608-1.152V170.63c0-3.328-.512-5.813-1.536-7.467-1.024-1.664-2.176-2.496-3.456-2.496-1.482 0-2.986 1.024-4.522 3.072a21.27 21.27 0 0 0-1.6 3.051v28.352l4.586 1.152v1.152h-21.44zM338.048 198.597c-4.555 0-8.053-.97-10.496-2.901-2.448-1.947-3.67-4.427-3.67-7.446 0-1.989.433-3.957 1.302-5.909.352-.907.81-1.75 1.365-2.517a99.099 99.099 0 0 1 6.827-1.387c5.515-.907 10.395-1.472 14.635-1.685v-2.304c0-5.659-.694-9.563-2.07-11.712-1.381-2.144-3.498-3.222-6.357-3.222-1.067 0-1.984.128-2.752.384l-1.088.384v11.5l-.981.212c-.827.118-1.515.171-2.07.171-1.738 0-3.13-.523-4.181-1.579-1.056-1.05-1.579-2.442-1.579-4.18 0-2.348 1.184-4.337 3.563-5.974 2.373-1.632 5.915-2.454 10.624-2.454 3.979 0 7.413.704 10.304 2.112 2.885 1.408 5.083 3.35 6.592 5.824 1.504 2.475 2.261 5.323 2.261 8.534v20.693l4.587 1.152v1.152h-6.89c-3.062 0-5.435-.944-7.126-2.837-.715-.768-1.275-1.734-1.685-2.902a16.944 16.944 0 0 1-2.54 3.435c-2.292 2.304-5.151 3.456-8.575 3.456zm3.072-2.688c1.888 0 3.595-1.024 5.12-3.072.565-.752 1.157-1.77 1.77-3.05v-11.115c-2.346 0-4.597.128-6.74.384-1.58.202-2.657.33-3.222.384-.256.554-.512 1.322-.768 2.304a22.388 22.388 0 0 0-.768 5.738c0 2.86.432 4.982 1.301 6.358.864 1.381 1.968 2.07 3.307 2.07zm0-40.619 3.05-11.477h9.963l-10.346 11.477zM387.476 198.597c-3.174 0-6.01-.693-8.512-2.07-1.227-.666-2.219-1.386-2.987-2.154-.81 1.125-1.707 1.995-2.688 2.603-.459.314-.97.597-1.536.853h-1.899v-13.035h3.051a21.518 21.518 0 0 0 2.923 5.974c2.698 3.941 6.07 5.91 10.112 5.91 2.144 0 3.765-.518 4.864-1.558 1.093-1.05 1.642-2.57 1.642-4.566 0-1.69-.757-3.104-2.26-4.245-1.51-1.152-3.873-2.57-7.084-4.267-2.762-1.376-5.002-2.613-6.72-3.712a15.832 15.832 0 0 1-4.352-4.138c-1.194-1.664-1.792-3.616-1.792-5.867 0-3.056 1.312-5.547 3.947-7.467 2.63-1.92 6.677-2.88 12.139-2.88 2.698 0 5.205.72 7.51 2.155 1.12.656 2.09 1.344 2.9 2.07.667-.923 1.563-1.793 2.688-2.603.864-.512 1.376-.795 1.536-.854h1.92v13.035h-3.072c-.768-2.203-1.717-4.17-2.837-5.91-2.55-3.978-5.584-5.973-9.11-5.973-1.38 0-2.56.512-3.54 1.536-.971 1.024-1.451 2.3-1.451 3.82 0 1.951.816 3.578 2.453 4.884 1.632 1.296 4.117 2.79 7.445 4.48 2.7 1.382 4.854 2.598 6.464 3.648a16.02 16.02 0 0 1 4.14 3.862c1.151 1.525 1.727 3.306 1.727 5.354 0 7.414-5.877 11.115-17.621 11.115zm0 0"/><g class="logo-limon"><path d="m139.415 293.028 4.587-1.152V242.83l-4.587-1.152v-1.13h9.963c4.592 0 6.89 2.298 6.89 6.89v44.438l4.587 1.152v1.152h-21.44zM165.466 293.028l4.587-1.152v-33.707l-4.587-1.152v-1.152h9.963c4.592 0 6.89 2.299 6.89 6.89v29.12l4.587 1.153v1.152h-21.44zm9.963-41.771c-1.536 0-2.816-.501-3.84-1.515-1.024-1.024-1.536-2.304-1.536-3.84s.512-2.805 1.536-3.818c1.024-1.024 2.304-1.536 3.84-1.536 1.52 0 2.795.512 3.819 1.536 1.024 1.013 1.536 2.282 1.536 3.818s-.512 2.816-1.536 3.84c-1.024 1.014-2.299 1.515-3.819 1.515zM191.518 293.028l4.586-1.152v-33.707l-4.586-1.152v-1.152h6.89c3.014 0 5.387.97 7.126 2.901.666.768 1.226 1.718 1.685 2.838.768-1.42 1.584-2.566 2.453-3.435 2.304-2.304 4.934-3.456 7.894-3.456 2.954 0 5.557.656 7.808 1.963 2.245 1.296 3.989 3.066 5.226 5.312.752-1.478 1.568-2.672 2.454-3.584 2.346-2.46 4.976-3.691 7.893-3.691 2.699 0 5.13.565 7.296 1.685 2.176 1.126 3.861 2.662 5.056 4.608a11.798 11.798 0 0 1 1.813 6.358v24.512l4.608 1.152v1.152h-9.962c-4.608 0-6.912-2.294-6.912-6.891v-19.925c0-3.328-.512-5.814-1.536-7.467-1.014-1.664-2.155-2.496-3.435-2.496-1.483 0-2.987 1.024-4.523 3.072a23.136 23.136 0 0 0-1.621 3.05v28.353l4.608 1.152v1.152h-21.461v-1.152l4.608-1.152v-24.512c0-3.328-.512-5.814-1.536-7.467-1.024-1.664-2.176-2.496-3.456-2.496-1.483 0-2.987 1.024-4.523 3.072a21.27 21.27 0 0 0-1.6 3.05v28.353l4.587 1.152v1.152h-21.44Zm0 0"/><g class="logo-o"><path d="M284.617 295.332c-6.346 0-11.317-1.798-14.912-5.398-3.6-3.61-5.397-8.581-5.397-14.912 0-6.325 1.797-11.29 5.397-14.89 3.595-3.611 8.566-5.42 14.912-5.42 6.326 0 11.29 1.809 14.89 5.42 3.596 3.6 5.398 8.565 5.398 14.89 0 6.33-1.802 11.302-5.397 14.912-3.6 3.6-8.565 5.398-14.89 5.398zm0-1.536c2.032 0 3.755-1.43 5.163-4.288 1.408-2.86 2.112-7.686 2.112-14.486 0-6.794-.704-11.626-2.112-14.485-1.408-2.859-3.13-4.288-5.163-4.288-2.048 0-3.776 1.43-5.184 4.288-1.408 2.859-2.112 7.69-2.112 14.485 0 6.8.704 11.627 2.112 14.486 1.408 2.858 3.136 4.288 5.184 4.288zm0 0"/><path d="M287.664 253.845s1.104-10.88 13.872-16.138c.016-.005.021-.011.021-.011-.005.005-.01.005-.021.01-.421.182-8.805 3.926-12.187 16.491 20.928 3.616 20.902-24.981 20.902-24.981-30.619 5.419-22.587 24.63-22.587 24.63" class="logo-hoja"/></g><path d="m311.047 293.028 4.586-1.152v-33.707l-4.586-1.152v-1.152h6.89c3.014 0 5.387.97 7.126 2.901.666.768 1.226 1.718 1.685 2.838a14.282 14.282 0 0 1 2.539-3.435c2.288-2.304 5.146-3.456 8.576-3.456 2.858 0 5.424.608 7.701 1.813 2.272 1.195 4.043 2.768 5.312 4.715 1.28 1.936 1.92 3.979 1.92 6.123v24.512l4.608 1.152v1.152h-9.963c-4.597 0-6.89-2.294-6.89-6.891v-19.925c0-3.211-.576-5.675-1.728-7.382-1.152-1.717-2.496-2.581-4.032-2.581-1.936 0-3.67 1.024-5.206 3.072-.672.87-1.232 1.888-1.685 3.05v28.353l4.587 1.152v1.152h-21.44zm0 0"/></g><g class="logo-myc"><path d="m36.983 348.287-8.581-17.13h-1.2v19.562h1.509v-15.594l7.797 15.594h.923l7.792-15.594v15.594h1.541v-19.562h-1.232zM59.7 331.157l-8.325 19.562h1.621l1.76-4.08h10.896l1.76 4.08h1.653l-8.357-19.562zm-4.304 13.973 4.81-11.264 4.806 11.264zM91.506 350.72l-7.717-8.998h1.541c2.901 0 5.28-2.379 5.28-5.285 0-2.907-2.379-5.28-5.28-5.28H73.703v19.562h1.51v-8.997h6.592l7.685 8.997zm-16.293-18.027H85.33c2.064 0 3.77 1.68 3.77 3.744 0 2.069-1.706 3.749-3.77 3.749H75.213ZM111.93 350.72h2.017l-8.358-9.782 8.358-9.781h-2.016l-14.278 16.768v-16.768h-1.51v19.562h1.089l7.35-8.608zM135.491 332.693v-1.536h-16.907v19.562h16.907v-1.51h-15.397v-7.487h9.946v-1.536h-9.946v-7.493zM147.844 350.72h1.51v-18.027h7.711v-1.536H140.16v1.536h7.685zM163.242 350.72v-19.563h-1.51v19.562zM167.909 331.157v19.562h1.51v-16.741l14.276 16.741h1.12v-19.562h-1.509v16.768l-14.31-16.768zM199.232 350.72c2.043 0 4-.614 5.648-1.76v1.76h1.51v-10.534h-8.443v1.536h6.933v5.28c-3.242 3.019-8.33 2.933-11.488-.197-3.21-3.238-3.21-8.464 0-11.707 3.243-3.216 8.47-3.216 11.686 0l1.088-1.061a9.747 9.747 0 0 0-6.934-2.88c-2.597 0-5.056 1.034-6.901 2.88-3.83 3.797-3.83 10.005 0 13.834a9.72 9.72 0 0 0 6.901 2.848zM229.918 343.06l-7.264-11.903h-1.76l8.272 13.552v6.01h1.536v-6.01l8.272-13.552h-1.76zM256.327 347.871a9.72 9.72 0 0 0 6.901 2.848c2.63 0 5.088-1.008 6.933-2.848l-1.06-1.066a8.315 8.315 0 0 1-11.713 0c-1.563-1.563-2.4-3.66-2.4-5.867 0-2.208.837-4.277 2.4-5.84a8.315 8.315 0 0 1 11.712 0l1.061-1.061a9.747 9.747 0 0 0-6.933-2.88c-2.597 0-5.056 1.034-6.901 2.88a9.698 9.698 0 0 0-2.848 6.9c0 2.63 1.002 5.089 2.848 6.934zM284.55 350.72c5.398 0 9.782-4.39 9.782-9.782s-4.384-9.781-9.781-9.781c-5.366 0-9.75 4.389-9.75 9.78 0 5.393 4.384 9.782 9.75 9.782zm0-18.027c4.587 0 8.273 3.69 8.273 8.245a8.252 8.252 0 0 1-8.272 8.272c-4.555 0-8.24-3.69-8.24-8.272a8.24 8.24 0 0 1 8.24-8.245zM308.756 348.287l-8.581-17.13h-1.2v19.562h1.509v-15.594l7.797 15.594h.923l7.792-15.594v15.594h1.541v-19.562h-1.232zM331.585 350.72c4.667 0 8.47-3.771 8.47-8.438v-11.125h-1.51v11.125c0 3.824-3.13 6.928-6.96 6.928a6.927 6.927 0 0 1-6.928-6.928v-11.125h-1.51v11.125a8.429 8.429 0 0 0 8.438 8.437zM344.722 331.157v19.562h1.51v-16.741l14.277 16.741h1.12v-19.562h-1.51v16.768l-14.31-16.768zM367.805 350.72v-19.563h-1.509v19.562zM375.32 347.871a9.72 9.72 0 0 0 6.901 2.848c2.63 0 5.088-1.008 6.934-2.848l-1.062-1.066a8.315 8.315 0 0 1-11.712 0c-1.562-1.563-2.4-3.66-2.4-5.867 0-2.208.838-4.277 2.4-5.84a8.315 8.315 0 0 1 11.712 0l1.062-1.061a9.747 9.747 0 0 0-6.934-2.88c-2.597 0-5.056 1.034-6.901 2.88a9.698 9.698 0 0 0-2.848 6.9c0 2.63 1.003 5.089 2.848 6.934zM402.12 331.157l-8.325 19.562h1.621l1.76-4.08h10.896l1.76 4.08h1.653l-8.357-19.562Zm-4.304 13.973 4.81-11.264 4.806 11.264zM418.971 347.871a9.72 9.72 0 0 0 6.902 2.848c2.629 0 5.088-1.008 6.933-2.848l-1.061-1.066a8.315 8.315 0 0 1-11.712 0c-1.563-1.563-2.4-3.66-2.4-5.867 0-2.208.837-4.277 2.4-5.84a8.315 8.315 0 0 1 11.712 0l1.061-1.061a9.747 9.747 0 0 0-6.933-2.88c-2.598 0-5.056 1.034-6.902 2.88a9.698 9.698 0 0 0-2.848 6.9c0 2.63 1.003 5.089 2.848 6.934zM438.955 350.72v-19.563h-1.509v19.562zM454.993 324.842l-1.366-.645-1.818 4.053 1.37.613zm-1.622 6.315c-5.365 0-9.749 4.389-9.749 9.78 0 5.393 4.384 9.782 9.75 9.782 5.397 0 9.78-4.39 9.78-9.781 0-5.392-4.383-9.781-9.78-9.781zm0 18.053c-4.554 0-8.24-3.69-8.24-8.272a8.24 8.24 0 0 1 8.24-8.245c4.587 0 8.272 3.69 8.272 8.245a8.252 8.252 0 0 1-8.272 8.272zM467.795 331.157v19.562h1.51v-16.741l14.277 16.741h1.12v-19.562h-1.51v16.768l-14.309-16.768zm0 0"/></g></g></svg>