<svg xmlns="http://www.w3.org/2000/svg" width="1024" height="587" viewBox="0 0 1024 587"><style></style><path id="logo-title" fill="#375359" stroke="#375359" stroke-width="4" d="M142.54 89.02c-2.18 1.55-5.18 3.05-9.01 4.47a35.89 35.89 0 0 1-12.59 2.14c-7.68 0-14.39-1.68-20.12-5.04a34.77 34.77 0 0 1-13.24-13.53 38.4 38.4 0 0 1-4.63-18.7c0-7.4 1.54-14.02 4.63-19.86a34.22 34.22 0 0 1 12.94-13.7c5.53-3.28 11.83-4.93 18.9-4.93 4.34 0 8.37.58 12.07 1.74a42.93 42.93 0 0 1 9.83 4.37l-4.68 11.1c-5.51-3.86-11.11-5.8-16.81-5.8-4.36 0-8.42 1.18-12.2 3.52a25.67 25.67 0 0 0-9 9.57 26.9 26.9 0 0 0-3.36 13.28c0 5.09 1.03 9.65 3.1 13.7a22.98 22.98 0 0 0 8.86 9.47c3.84 2.27 8.28 3.4 13.3 3.4 3.6 0 6.84-.54 9.73-1.62a23.85 23.85 0 0 0 7.29-4.18zm27.71-68.33V83.4h36.58v11.4h-48.5V20.7Zm64.19 0v74.13h-11.91V20.69Zm-2.65-4.8h-7.12l8.25-13.63h12.63zm88.54 4.8v76.78h-.3l-53.49-51.84.3 49.19h-12.01V18.14h.6l53.29 52.44-.2-49.9zm32.4 0v74.13H340.8V20.69Zm75.4 68.33c-2.18 1.55-5.18 3.05-9.02 4.47a35.89 35.89 0 0 1-12.58 2.14c-7.68 0-14.4-1.68-20.12-5.04a34.77 34.77 0 0 1-13.24-13.53 38.4 38.4 0 0 1-4.64-18.7c0-7.4 1.54-14.02 4.64-19.86a34.22 34.22 0 0 1 12.93-13.7c5.54-3.28 11.84-4.93 18.9-4.93 4.34 0 8.37.58 12.07 1.74a42.93 42.93 0 0 1 9.83 4.37l-4.68 11.1c-5.5-3.86-11.1-5.8-16.8-5.8-4.36 0-8.42 1.18-12.2 3.52a25.67 25.67 0 0 0-9 9.57 26.9 26.9 0 0 0-3.37 13.28c0 5.09 1.03 9.65 3.1 13.7a22.98 22.98 0 0 0 8.86 9.47c3.85 2.27 8.28 3.4 13.31 3.4 3.6 0 6.84-.54 9.72-1.62a23.85 23.85 0 0 0 7.29-4.18zm53.9-11.61h-27l-7.14 17.4h-11.71l32.8-77.18h.72l32.8 77.19h-13.64zm-3.98-10.19-9.27-23.42-9.58 23.42zm69.7-46.53h21.08c9.3 0 17 1.83 23.07 5.5 6.09 3.67 10.52 8.38 13.3 14.15a41.86 41.86 0 0 1 4.19 18.43c0 7.2-1.69 13.53-5.05 19a34.31 34.31 0 0 1-13.5 12.62 39.19 39.19 0 0 1-18.44 4.43h-24.66zm22.5 62.72c5.3 0 9.97-.98 14-2.95a21.99 21.99 0 0 0 9.5-8.7c2.27-3.84 3.4-8.44 3.4-13.8 0-5.84-1.23-10.71-3.71-14.62a22.75 22.75 0 0 0-9.48-8.6A27.15 27.15 0 0 0 572.1 32h-12.44V83.4zm104.23-62.72v11.4H637.2v19.76h33.21v11.4H637.2V83.4h38.72v11.4h-50.64V20.7Zm83.34 0v76.78h-.3l-53.48-51.84.3 49.19h-12.02V18.14h.6l53.3 52.44-.2-49.9zm64.81 0v11.4h-19.15v62.73h-11.82V32.09H773V20.7Zm53.19 56.72h-27l-7.14 17.4h-11.72l32.81-77.18h.71l32.81 77.19h-13.64zm-3.98-10.19-9.28-23.42L853 67.22zm49-46.53V83.4h36.58v11.4h-48.49V20.7Zm0 0"/><path id="logo-subtitle" fill="#375359" d="M347.18 236.96a15.6 15.6 0 0 1-6.61 1.4c-2.38 0-4.25-.61-5.63-1.84-1.36-1.24-2.12-3.41-2.28-6.52l-2.3-41.48-14.35 45.5c-.82 2.5-2.57 3.76-5.25 3.76-1.53-.05-2.6-.38-3.2-.98a6.59 6.59 0 0 1-1.46-2.88l-14.86-45.48-2.38 41.32c-.22 3.05-.83 5.3-1.84 6.76-1.02 1.44-2.81 2.16-5.39 2.16-2.56 0-4.85-1.07-6.87-3.2 1.6-1.47 2.47-3.65 2.63-6.54l3.28-41.88v-1.08c0-2.56-.55-4.61-1.64-6.14a26.1 26.1 0 0 1 12.63-3.2c4.49 0 7.64 1.06 9.47 3.2 1.83 2.13 3.42 5.74 4.79 10.82l6.56 23.51 6.4-23.11c1.58-5.74 3.59-9.57 6.01-11.5 2.45-1.95 5.62-2.93 9.53-2.93 3.91 0 7.26.61 10.03 1.82a11.62 11.62 0 0 0-1.46 6.07c0 .48.03 1.02.08 1.64l2.47 42.44c.1 3.83.65 6.61 1.64 8.36zm40.58-50.64v43.02c0 2.95.88 4.89 2.63 5.82-2.09 2.35-4.55 3.52-7.4 3.52-2.83 0-4.9-.8-6.22-2.38-1.3-1.59-1.96-4.04-1.96-7.36v-43.12c0-2.84-.9-4.72-2.72-5.64a9.33 9.33 0 0 1 7.47-3.55c5.47 0 8.2 3.23 8.2 9.69zm42.24.32v19.27h4.66c3.83 0 6.75-.84 8.77-2.5 2.03-1.67 3.04-4.05 3.04-7.13 0-3.1-1.01-5.47-3.04-7.14-2.02-1.67-4.94-2.5-8.77-2.5zm34.59 46.56c-1.85 3.65-4.8 5.48-8.85 5.48-2.13 0-4.08-.54-5.82-1.64-1.75-1.1-3.64-3.25-5.67-6.46l-9.51-15.5h-4.82v14.26c0 2.95.9 4.89 2.7 5.82a9.73 9.73 0 0 1-7.55 3.52c-5.36 0-8.05-3.25-8.05-9.74v-42.22c0-2.79-.92-4.67-2.78-5.64a9.48 9.48 0 0 1 7.55-3.63h13.61c6.62 0 12.32 1.66 17.1 4.97 4.78 3.3 7.17 7.93 7.17 13.88 0 3.88-1.07 7.2-3.2 9.97a20.87 20.87 0 0 1-8.6 6.44l9.67 14.33a20.36 20.36 0 0 0 7.05 6.16zm39.04-14.77h12.8l-6-21.05Zm35.58 15.59a7.43 7.43 0 0 1-3.33 3.4 11.42 11.42 0 0 1-5.52 1.26c-2.14 0-3.9-.53-5.27-1.6-1.36-1.07-2.59-2.96-3.68-5.68l-1.96-5.08h-18.62l-2.04 5.72c-1.54 4.43-4.13 6.64-7.8 6.64-1.74 0-3.4-.4-4.96-1.18-1.56-.8-2.58-1.8-3.08-3a5.32 5.32 0 0 0 2.34-1.92c.63-.9 1.33-2.32 2.1-4.22L504.2 185c-.97-2.14-2.03-3.61-3.18-4.42 1.7-2.63 4.32-3.95 7.87-3.95 2.73 0 4.73.74 5.98 2.22 1.26 1.49 2.6 4.13 4.03 7.95l14.67 39.68c1.42 3.88 3.3 6.4 5.65 7.54zm24.61-9.92v-38.28c0-2.84-.9-4.72-2.72-5.64a9.33 9.33 0 0 1 7.47-3.55c5.47 0 8.2 3.23 8.2 9.69v36.13c0 3.89 1.7 5.83 5.09 5.83h8.45c3.87 0 6.82-1.1 8.85-3.28 1.3.93 1.96 2.48 1.96 4.64 0 2.15-.86 4.04-2.58 5.68-1.73 1.64-4.23 2.46-7.51 2.46h-12.3c-5.47 0-9.32-1-11.56-3.02-2.23-2.03-3.35-5.58-3.35-10.66zm96.6-45.33a13.05 13.05 0 0 1 7.12-2.14c2.52 0 4.47.66 5.83 1.98a6.63 6.63 0 0 1 2.04 5c0 2.02-.49 4.2-1.46 6.55l-15.76 38.12c-1.75 4.2-3.3 6.99-4.68 8.36-1.36 1.36-3.55 2.04-6.55 2.04a14.1 14.1 0 0 1-3.82-.42 5.31 5.31 0 0 1-2.63-1.86c-.78-.99-1.41-2-1.88-3.04a68.96 68.96 0 0 1-1.92-5.08l-14.83-41.8c-1.05-2.9-2.5-4.84-4.35-5.82 2.56-2.69 5.4-4.03 8.53-4.03 2.23 0 4.08.68 5.57 2.02 1.48 1.34 2.8 3.73 3.94 7.17l12.61 39.42 12.47-35.32c1.05-3.18 1.57-5.54 1.57-7.08 0-1.56-.6-2.92-1.8-4.07zm54.03 39.66h12.8l-5.99-21.05zm35.58 15.59a7.43 7.43 0 0 1-3.32 3.4 11.42 11.42 0 0 1-5.53 1.26c-2.13 0-3.89-.53-5.26-1.6-1.36-1.07-2.6-2.96-3.69-5.68l-1.96-5.08h-18.62l-2.04 5.72c-1.53 4.43-4.13 6.64-7.79 6.64-1.75 0-3.4-.4-4.96-1.18-1.56-.8-2.6-1.8-3.09-3a5.32 5.32 0 0 0 2.35-1.92c.62-.9 1.32-2.32 2.1-4.22l16.8-43.36c-.98-2.14-2.04-3.61-3.19-4.42 1.7-2.63 4.32-3.95 7.87-3.95 2.74 0 4.73.74 5.99 2.22 1.25 1.49 2.6 4.13 4.02 7.95l14.67 39.68c1.42 3.88 3.3 6.4 5.65 7.54z"/><g id="logo-dots"><g id="logo-dot-1"><path fill="#9bd5d4" d="M178.7 353.4c0 49.31-40 89.3-89.35 89.3C40 442.7 0 402.7 0 353.4c0-49.33 40-89.3 89.35-89.3 49.35 0 89.35 39.97 89.35 89.3z"/><path fill="#4497af" d="M85.65 359.45c-.34 0-.67-.14-.9-.43a1.28 1.28 0 0 1 .1-1.76l1.32-1.2a3.17 3.17 0 0 1 4.31.02l1.28 1.19c.5.46.54 1.25.1 1.76-.45.52-1.22.56-1.71.1l-1.27-1.18a.82.82 0 0 0-1.12 0l-1.32 1.2c-.23.2-.5.3-.8.3M88.3 367.39c-.67 0-1.2-.56-1.2-1.25v-5.35c0-.7.53-1.25 1.2-1.25.67 0 1.2.56 1.2 1.25v5.35c0 .69-.53 1.25-1.2 1.25"/><path fill="#f14285" d="M133.72 303.42c-5.91-6.48-25.4-2.52-39.24 3.7a15.11 15.11 0 0 1-12.41 0c-13.84-6.22-33.32-10.18-39.24-3.7-4.73 5.18-5.25 14.98-.53 23.32 31.3 15.55 61.95 15.56 91.95 0 4.72-8.34 4.2-18.14-.53-23.32"/><path fill="#eeecf8" d="M133.47 336.23c-1.05 2.62-11.65 4.17-12.19 1.84-.06.2-.11.4-.17.53-1 2.4-9.27 3.82-13.17 3.02-1.1-.24-1.86-.64-2-1.24v-.04a3.45 3.45 0 0 1-2.77 2.7c-3.57.7-8.02.9-11.68.58-.86-.08-2.28-.44-2.7-1.37-.27-.63-.76-.63-1.04 0-.4.93-1.82 1.3-2.68 1.37a44.8 44.8 0 0 1-11.7-.59 3.45 3.45 0 0 1-2.75-2.7v.05c-.68 2.74-13.9 1.3-15.18-1.78a5.35 5.35 0 0 1-.17-.53c-.54 2.33-11.14.78-12.19-1.84-.77-1.91-1.47-11.69.24-14.7 2.3-4.08 9.33-1.83 11.37 3.91.12.37.63.33.7-.06.25-1.52.6-2.86 1.06-3.76 1.39-2.74 6.72-2.77 10.32 0 1.66 1.29 2.5 3.56 3.22 5.74.12.36.61.3.65-.08.05-.82.12-1.61.2-2.1 1.5-8.97 14.4-6.61 16.4 2.27.17.74.31 1.5.44 2.25a.6.6 0 0 0 .6.53.6.6 0 0 0 .6-.53c.12-.76.27-1.51.44-2.25 1.99-8.88 14.9-11.24 16.39-2.28.04.24.07.55.11.9v.08l.1 1.13c.03.38.53.44.64.08.18-.55.37-1.1.58-1.65.62-1.61 1.4-3.13 2.65-4.09 3.6-2.77 8.92-2.74 10.31 0 .46.9.8 2.24 1.07 3.76.06.4.57.43.7.06 2.03-5.74 9.06-7.99 11.36-3.9 1.7 3 1 12.78.24 14.69"/><path fill="#eeecf8" stroke="#423b6f" stroke-width="5.8" d="M133.5 393.05c-1.06 2.62-11.66 4.17-12.2 1.84-.05.2-.1.4-.16.54-1.01 2.4-9.28 3.8-13.18 3-1.1-.23-1.86-.63-2-1.23v-.04a3.46 3.46 0 0 1-2.76 2.7c-3.57.7-8.02.9-11.7.58-.85-.08-2.27-.44-2.67-1.37-.29-.64-.77-.64-1.05 0-.41.93-1.83 1.3-2.69 1.37-3.67.31-8.12.12-11.69-.59a3.46 3.46 0 0 1-2.75-2.69v.04c-.69 2.75-13.9 1.3-15.18-1.77a5.36 5.36 0 0 1-.17-.54c-.54 2.33-11.14.78-12.2-1.84-.76-1.91-1.46-11.69.24-14.7 2.3-4.08 9.34-1.82 11.37 3.91.13.37.64.34.7-.05.26-1.53.6-2.87 1.06-3.77 1.4-2.74 6.73-2.77 10.32 0 1.67 1.29 2.51 3.56 3.23 5.74.11.36.61.3.64-.08.06-.82.13-1.61.21-2.1 1.5-8.97 14.4-6.61 16.4 2.27.16.74.3 1.5.44 2.26.05.35.32.52.6.52.26 0 .53-.17.58-.52.14-.76.28-1.52.45-2.26 2-8.88 14.9-11.24 16.39-2.27.04.23.08.54.11.88v.1c.04.34.08.73.1 1.12.03.38.53.44.64.08l.58-1.65c.62-1.6 1.4-3.13 2.65-4.09 3.6-2.77 8.93-2.74 10.32 0 .46.9.8 2.24 1.06 3.77.06.39.57.42.7.05 2.04-5.73 9.07-7.99 11.37-3.9 1.7 3 1 12.78.24 14.69"/></g><g id="logo-dot-2"><path fill="#9bd5d4" d="M369.03 454.26c0 48.12-39.04 87.13-87.19 87.13s-87.18-39-87.18-87.13c0-48.12 39.03-87.14 87.18-87.14 48.15 0 87.19 39.02 87.19 87.14z"/><path fill="#fff" stroke="#bdbcbc" stroke-width="3.4" d="M300.11 500.15c-1.08 0-1.4-.9-1.68-1.68l-.66-1.97a502.4 502.4 0 0 1-2.02-6.43c-1.62-5.27-3.46-11.37-4.54-15l-.25-.87c-1.46-4.98-2.83-9.68-9.3-9.73h-.26l-.13.01-.48-.01c-6.46.05-7.83 4.75-9.28 9.73l-.26.86c-1.07 3.61-2.9 9.71-4.54 15.01a498.74 498.74 0 0 1-2.68 8.4c-.28.79-.6 1.68-1.68 1.68-4.53 0-7.8-1.08-9.99-3.3-3.56-3.62-3.43-9.45-3.31-15.1.02-1.02.04-2.08.04-3.1 0-17.74-2.34-23.31-7.6-29.1a38.77 38.77 0 0 1-9.62-21.34c-.92-7.75.69-15.01 4.41-19.93 5.36-7.07 14.11-11.3 23.42-11.3 4.16 0 8.17.85 11.93 2.52 1.88.84 4.51 2.29 6.62 3.45 1.1.6 2.31 1.28 2.8 1.5h.36c.49-.22 1.71-.9 2.8-1.5 2.11-1.16 4.74-2.61 6.62-3.45a29.19 29.19 0 0 1 11.93-2.52c9.32 0 18.07 4.23 23.42 11.3 3.72 4.92 5.33 12.18 4.41 19.93a38.77 38.77 0 0 1-9.62 21.33c-5.26 5.8-7.6 11.38-7.6 29.1 0 1.03.02 2.1.04 3.12.13 5.64.25 11.47-3.3 15.08-2.2 2.23-5.47 3.3-10 3.3"/><path fill="#fff" stroke="#322f30" stroke-linecap="round" stroke-width="3" d="M295.72 428.14c0-2.93 2.25-5.31 5.02-5.31a5.18 5.18 0 0 1 5.03 5.31M256.69 428.14c0-2.93 2.25-5.31 5.03-5.31a5.18 5.18 0 0 1 5.03 5.31"/><path fill="#770f19" d="M270.3 441.24a10.88 10.88 0 0 0 10.93 10.73c6 0 10.87-4.8 10.93-10.73H270.3"/></g><g id="logo-dot-3"><path fill="#9bd5d4" d="M602.56 494.13c0 51.15-41.5 92.61-92.67 92.61-51.18 0-92.67-41.46-92.67-92.61 0-51.16 41.49-92.62 92.67-92.62s92.67 41.46 92.67 92.62z"/><path fill="#fff" d="M515.83 544.68h-15.62l.46 1.78a9.68 9.68 0 0 0 9.36 7.57c4.49 0 8.33-3.08 9.36-7.57l.46-1.78h-1.59zM523.97 534.4h-1.87l.65-2.81h-25.63l.65 2.8h-1.87c-1.03 0-1.87.85-1.87 1.87 0 1.03.84 1.87 1.87 1.87h2.8l.29 1.31.37 1.5h21.24l.38-1.5.18-1.3h2.81a1.88 1.88 0 0 0 0-3.74zM527.71 520.37h-2.43l.47-1.87h-31.63l.47 1.87h-2.43c-1.03 0-1.87.84-1.87 1.87 0 1.03.84 1.87 1.87 1.87h3.27l.85 3.74h27.32l.84-3.74h3.27c1.03 0 1.87-.84 1.87-1.87 0-1.03-.84-1.87-1.87-1.87zM530.52 507.27h-2.15l.47-1.87h-37.8l.46 1.87h-2.15a1.88 1.88 0 0 0 0 3.74h3l.84 3.75h33.4l.84-3.74h3.09c1.03 0 1.87-.85 1.87-1.87 0-1.03-.84-1.88-1.87-1.88zM541.56 443.13a17.22 17.22 0 0 0-8.8-7.49 19.47 19.47 0 0 0-16.56 1.4c-.93.57-1.96.94-2.99 1.22 4.02 1.5 8.7 2.43 12.91.75.94-.37 2.06.1 2.43 1.12a1.83 1.83 0 0 1-1.12 2.43 18.5 18.5 0 0 1-6.27 1.13c-9.54 0-18.24-6.92-19.64-7.76-2.34-1.4-5.15-1.6-7.77-1.6a17.41 17.41 0 0 0-15.44 8.8c-5.99 10.19-2.15 23.56 3.37 32.63.37.75 1.03 4.12 1.12 10.1a4.62 4.62 0 0 0 3.74 4.49v6.64a4.69 4.69 0 0 0 4.68 4.67h37.43a4.63 4.63 0 0 0 4.68-4.67v-6.64a4.6 4.6 0 0 0 3.74-4.49c.1-5.98.75-9.35 1.12-10.1 5.52-9.07 9.26-22.44 3.37-32.63zm-11.98 53.86c0 .56-.37.93-.93.93h-37.43c-.56 0-.93-.37-.93-.93v-6.55h39.3z"/></g><g id="logo-dot-4"><path fill="#9bd5d4" d="M824.59 461.43c0 50.1-40.64 90.71-90.76 90.71-50.12 0-90.76-40.61-90.76-90.7 0-50.1 40.64-90.71 90.76-90.71 50.12 0 90.76 40.6 90.76 90.7z"/><path fill="#dbdcd8" fill-rule="evenodd" d="M754.72 405.7c-4.87-5.2-12-6.05-22.06-1.35-10.52-8.12-24.95-8.9-29.12 3.16 6.62-8.23 22.42-4.64 32.18 2.9 7.29-3.4 13.85-5.41 19-4.72"/><path fill="#edefec" fill-rule="evenodd" d="M705.6 448.83c-4.47 36.23 2.6 61.71 17.2 80.16 1.75.82 3.19.23 4.06-2.82 1.84-11.78-5.35-28.35-.43-43.23 4.31-13.07 9.78-12.42 13.87.38 3.84 12 7.79 21.52 9.32 34.93.4 3.6 2.71 13.97 7.4 7.72 4.43-6.47 4.74-19.9 3.9-35.3-.55-9.58-3.1-18.28-3.33-27.45-.1-3.41.13-6.68.77-9.75 5.44-15.48 9.15-30.3 5.04-42-4.77-8.99-15.15-7.24-27.65-1.41-13.36-10.33-38.1-13.24-34.98 11.51.45 10 2.32 18.87 4.83 27.26"/><path fill="#6e1d2d" fill-rule="evenodd" d="M724.23 523.42c-11.36-23.55-11.01-46.66-7.93-69.67.4-2.8.6-5.7.6-8.69-.02-5.06-2.19-13.52 4.38-15.14 1.42-.34 3.1-.2 5.07.4 6.6 2.04 11.97 2.81 16.25 2.43 17.07-4.94 9.51 12.5 8.6 21.5a69.77 69.77 0 0 0 1.83 23.74c2.4 13.4 2.7 25.62 1.74 37.15-1.28-17.28-4.95-42.78-11.6-58.76-2.45-3.66-5.29-5.76-8.69-5.73-9.61.09-12.75 11.06-14.06 19.17-1.08 6.57-1.15 13.68-1.02 20.88.68 11.2 2.47 22.05 4.83 32.72"/></g><g id="logo-dot-5"><path fill="#9bd5d4" d="M1024 352.03c0 50.1-40.63 90.71-90.76 90.71-50.12 0-90.75-40.61-90.75-90.7 0-50.1 40.63-90.71 90.75-90.71 50.13 0 90.76 40.6 90.76 90.7z"/><g fill="#fff" stroke="#231f20" stroke-width="1.6"><path d="M934.88 364.08v-11.43c0-5.07.01-17.11 10.35-18.12 11.88-1.17 15.32 6.47 15.32 13.85v11.58c0 1.83-2.12 6.31-11.36 8.44-8.02 1.84-14.3-.9-14.3-4.32M960.78 358.61v-9.25c0-4.1.68-13.96 8.14-14.66 6.65-.63 12.05 5.24 12.05 11.2v9.38c0 1.48-1.67 5.1-8.94 6.82-6.3 1.5-11.25-.72-11.25-3.49"/><path d="m980.79 353.27-.43-6.79c-.2-3 .85-10.2 5.58-11.14 4.5-.89 9.53 3.27 9.8 7.65l.45 6.87c.06 1.09-1.05 3.83-6.57 5.44-4.78 1.39-8.7 0-8.83-2.03M888.96 353.27l.43-6.79c.2-3-1.45-9.8-5.58-11.14-5.2-1.69-9.52 3.27-9.8 7.65l-.44 6.87c-.07 1.09 1.04 3.83 6.56 5.44 4.78 1.39 8.7 0 8.83-2.03"/><path d="M909.3 358.61v-9.25c0-4.1-1.2-13.8-8.13-14.66-8.5-1.05-12.05 5.24-12.05 11.2v9.38c0 1.48 1.66 5.1 8.93 6.82 6.3 1.5 11.25-.72 11.25-3.49"/><path d="M934.8 364.08v-11.43c0-5.07 0-17.11-10.34-18.12-11.88-1.17-15.31 6.47-15.31 13.85v11.58c0 1.83 2.11 6.31 11.35 8.44 8.02 1.84 14.3-.9 14.3-4.32"/></g><path fill="#231f20" d="M867.23 343.56c.08.04 22.01 10.51 62.01 10.51 19.5 0 43.28-2.49 70.9-9.88.36-.1.58-.46.48-.8a.68.68 0 0 0-.83-.47c-27.51 7.36-51.17 9.83-70.55 9.83-19.88 0-35.25-2.6-45.64-5.2-5.2-1.3-9.15-2.6-11.8-3.57a69.77 69.77 0 0 1-3.92-1.58l-.04-.02h-.02a.68.68 0 0 0-.9.3.65.65 0 0 0 .31.88"/><g fill="#a1e1f9" stroke="#231f20" stroke-width="1.6"><path d="m884.13 349.64-5.98-.88.89-5.86 5.97.88zM895 352.76l.95-7.22 7.36.93-.95 7.23zM927.61 358.4h-10.4v-10.2h10.4zM952.45 358.4v-10.2h-10.4v10.2zM974.62 352.84l-.83-7.24-7.38.8.83 7.24zM991.52 348.76l-.89-5.86-5.98.88.9 5.86z"/></g></g></g></svg>